<mxfile host="app.diagrams.net" modified="2024-04-13T17:34:13.760Z" agent="Mozilla/5.0 (X11; Linux x86_64; rv:124.0) Gecko/20100101 Firefox/124.0" version="24.2.5" etag="Sf_S6-T9_mnipZEdLCdC" type="github">
  <diagram name="Page-1" id="hk-DzFecpYcV0p4zZQhD">
    <mxGraphModel>
      <root>
        <mxCell id="0" />
        <mxCell id="1" parent="0" />
      </root>
    </mxGraphModel>
  </diagram>
</mxfile>
